<svg version="1.1" id="Layer_1" xmlns="http://www.w3.org/2000/svg" xmlns:xlink="http://www.w3.org/1999/xlink" x="0px" y="0px"
	 width="100%" viewBox="0 0 592 768" enable-background="new 0 0 592 768" xml:space="preserve">
<path fill="#000000" opacity="1.000000" stroke="none" 
	d="
M493.614624,364.355804 
	C518.475830,385.604614 531.235901,413.117340 537.117920,444.226074 
	C540.366577,461.407257 544.076111,478.463715 548.922180,495.253448 
	C553.030884,509.488342 553.773865,523.814026 550.292053,538.173706 
	C547.225708,550.819641 547.699280,563.692139 547.450745,576.455139 
	C546.901733,604.648560 542.479126,632.057739 529.561462,657.199524 
	C518.870972,678.006470 505.664703,697.387695 484.578827,709.494751 
	C471.656494,716.914429 457.684875,720.964600 442.653137,720.961914 
	C413.154053,720.956604 383.653809,721.156555 354.156403,720.945862 
	C340.303436,720.846924 326.516693,719.634338 313.574341,713.934692 
	C311.093445,712.842163 308.914337,712.288879 307.373505,715.463806 
	C306.429962,717.407898 304.436798,718.100708 302.334473,718.199524 
	C300.672150,718.277649 298.822876,718.717590 297.367188,718.170593 
	C284.928986,713.496887 271.251526,715.666626 258.808746,711.007935 
	C252.069962,708.484802 244.997192,708.194946 238.180267,710.397766 
	C227.231430,713.935913 215.466614,714.307556 204.870804,719.016052 
	C192.896545,724.336975 184.038452,732.212830 183.760101,746.576965 
	C183.750473,747.073730 183.633743,747.568115 183.572723,748.064331 
	C183.168869,751.348206 183.419144,755.333862 179.856186,756.762329 
	C175.883820,758.354736 171.922729,756.703735 168.630280,754.194092 
	C164.441528,751.001099 161.866623,746.574646 161.933838,741.343323 
	C161.986725,737.227844 160.345566,735.635559 156.718246,734.270874 
	C152.197906,732.570312 148.608200,729.022827 145.523224,725.425354 
	C141.306580,720.508179 137.687332,715.063232 133.983978,709.725220 
	C129.110641,702.700806 131.055710,695.002380 132.150635,687.446289 
	C132.743454,683.355225 133.550674,679.295349 134.291672,675.046509 
	C130.565964,673.639832 127.052193,674.166443 123.668365,674.322327 
	C104.152557,675.221252 87.385880,668.674622 72.887512,655.885559 
	C70.522690,653.799561 67.961784,651.706360 66.287277,649.104309 
	C55.318386,632.059753 42.633976,615.965576 35.179237,596.897766 
	C26.825523,575.530579 26.617514,554.266479 38.422459,533.866821 
	C42.402161,526.989624 48.233116,521.548218 54.841324,517.319031 
	C72.942902,505.734070 86.372505,489.879761 97.844467,472.042908 
	C100.352936,468.142670 103.611221,464.727692 106.485664,461.059021 
	C109.445549,457.281342 111.020088,453.366241 108.209229,448.678467 
	C106.038216,445.057831 106.355980,440.902161 106.726784,436.949066 
	C107.753532,426.003052 110.131050,415.317444 118.285812,407.329315 
	C126.775673,399.013000 134.195663,390.042908 140.767380,380.098297 
	C149.306137,367.177002 161.104599,357.237915 173.802856,348.475037 
	C177.265244,346.085693 180.113785,343.202484 180.876175,339.164215 
	C183.345581,326.084259 189.886902,314.134125 191.190552,300.727112 
	C191.918976,293.235718 191.958328,285.761536 191.692505,278.276031 
	C191.571579,274.870422 190.381668,271.627228 187.738403,269.352203 
	C182.918564,265.203766 181.554535,259.625610 180.869827,253.753418 
	C178.965637,237.422821 180.313843,221.122467 182.214142,204.931122 
	C183.194366,196.579056 181.463760,188.707703 180.498779,180.654892 
	C179.774857,174.613571 180.820724,169.080429 184.481140,164.111984 
	C190.055786,156.545288 193.080048,147.583008 197.803223,139.531464 
	C199.863922,136.018616 199.040573,131.659271 198.347672,127.746803 
	C196.439682,116.973381 198.850113,107.214195 204.925430,98.325027 
	C208.891403,92.522125 211.729095,86.309097 214.399521,79.775871 
	C228.149582,46.136444 253.990723,28.541925 289.596680,23.521196 
	C303.229919,21.598799 316.206421,22.328136 329.650665,25.036343 
	C349.437042,29.022116 363.442383,40.550171 375.605225,55.569580 
	C387.053345,69.706429 393.774933,86.011864 399.101166,103.178314 
	C407.419861,129.989395 412.645386,157.349152 415.364105,185.258423 
	C416.684753,198.815796 416.602905,212.543900 420.210266,225.850266 
	C421.663361,231.210144 421.746338,236.803238 420.802246,242.234924 
	C419.881378,247.533066 420.394897,252.497284 422.354553,257.410156 
	C423.341949,259.885529 424.168182,262.435669 425.307556,264.838043 
	C429.923065,274.570038 433.849426,284.338654 436.461151,295.019073 
	C439.454926,307.262024 445.959167,318.666016 451.152100,330.339386 
	C452.637329,333.678040 453.242096,337.091644 452.863373,340.532349 
	C452.413361,344.620636 454.142548,346.050751 457.865326,346.803192 
	C471.164764,349.491211 483.234619,354.835999 493.614624,364.355804 
M502.306122,517.377136 
	C503.385437,531.145508 504.896515,544.896484 505.454285,558.685974 
	C506.617767,587.451111 508.646942,616.271423 504.161591,644.947266 
	C500.442657,668.723206 492.394897,690.116211 470.580231,703.595947 
	C469.615540,704.192078 468.278229,704.859009 468.642944,706.861511 
	C477.228394,704.170227 484.978943,700.424927 491.270355,694.272278 
	C510.461975,675.503723 523.848816,653.184143 531.838074,627.549194 
	C538.259033,606.946472 539.666565,585.744446 539.795959,564.382690 
	C539.864624,553.040100 540.446655,541.790161 542.414612,530.575500 
	C544.214355,520.319702 543.825439,509.996857 541.041138,499.884033 
	C536.178528,482.222504 532.407104,464.344208 529.244751,446.291992 
	C523.276672,412.222260 507.572723,383.974274 478.563019,363.927826 
	C466.149139,355.349518 452.757324,351.330109 437.595947,352.943939 
	C421.162659,354.693176 406.473541,361.120758 392.169098,368.810791 
	C370.666626,380.370422 351.457306,395.368774 331.450195,409.177795 
	C318.395050,418.188599 307.398041,429.211121 297.860992,441.818970 
	C292.737396,448.592346 287.433685,455.234924 282.057007,461.810394 
	C266.386719,480.974548 252.305679,501.130005 243.063507,524.283997 
	C240.266571,531.291016 237.871567,538.458435 234.989929,546.384583 
	C242.867279,543.184265 248.683640,538.794739 254.327637,534.142090 
	C256.257080,532.551575 258.063599,530.742249 260.471710,529.925842 
	C262.207092,529.337402 264.205078,528.902588 265.469299,530.788757 
	C266.582916,532.450256 266.463898,534.434692 265.278717,535.963135 
	C264.182556,537.376709 262.734711,538.595825 261.245392,539.613098 
	C254.093933,544.497986 246.902893,549.326355 239.674973,554.097595 
	C229.791687,560.621643 219.982864,567.240784 211.914474,576.039734 
	C210.068207,578.053223 207.989502,580.063416 207.707230,583.498596 
	C210.743256,583.958862 213.506958,584.404968 216.278656,584.793884 
	C238.304764,587.884399 259.518280,593.055725 276.880554,608.228394 
	C277.996674,609.203735 279.399017,609.846069 280.640381,610.684509 
	C289.240082,616.492920 299.473389,616.970154 309.095795,619.460144 
	C316.117584,621.277161 318.803558,624.547424 319.368683,631.683838 
	C319.503723,633.388855 319.443237,634.918213 321.560608,635.625732 
	C326.245941,637.191467 331.443848,635.769958 334.494171,631.781738 
	C348.787415,613.093811 360.923279,593.010071 373.094391,572.914368 
	C383.866974,555.127808 392.769501,536.181885 405.893738,519.829590 
	C419.237213,503.204224 431.951111,486.077057 448.784302,472.564850 
	C458.324585,464.906708 468.816223,460.148376 480.974060,459.095184 
	C490.435181,458.275635 494.824890,461.622620 496.424438,470.921082 
	C499.020508,486.012543 501.055206,501.179260 502.306122,517.377136 
M379.401031,711.895020 
	C393.333618,713.277954 407.193390,713.838867 421.202484,711.885864 
	C440.611298,709.180115 459.204315,705.237854 473.724243,690.513794 
	C478.066620,686.110413 482.738983,682.083984 485.589447,676.503357 
	C493.660339,660.702515 498.150513,643.794556 498.644043,626.179871 
	C499.287384,603.218689 499.214569,580.232788 497.969330,557.254639 
	C496.473175,529.647705 493.375458,502.229584 489.510162,474.880463 
	C488.519409,467.870270 484.842407,465.369659 477.722473,466.673187 
	C471.028900,467.898651 465.073883,470.912079 459.738983,474.973480 
	C433.067383,495.278351 413.290436,521.390198 396.221008,549.917175 
	C380.849091,575.607239 367.122894,602.336182 348.837189,626.225037 
	C347.972870,627.354187 346.888641,628.568542 347.500854,630.744568 
	C350.307770,630.869873 353.357605,630.534180 356.161865,631.213074 
	C368.198517,634.127014 379.147644,630.061035 390.136078,626.270264 
	C393.147766,625.231323 396.141052,624.237854 399.297058,623.942688 
	C412.800537,622.679382 425.239258,627.328064 437.827881,631.058594 
	C440.429077,631.829346 440.698853,634.029663 440.309570,636.356384 
	C439.857239,639.060242 437.796692,638.578003 436.018250,638.382141 
	C429.697662,637.685852 423.628326,635.814209 417.586761,633.994507 
	C405.728424,630.422974 394.559753,632.619568 383.567169,637.331848 
	C382.384216,637.838928 381.754852,638.548828 381.390717,639.790833 
	C379.708405,645.528931 378.938965,645.962891 373.190460,644.330627 
	C370.792236,643.649658 368.450775,642.759766 366.104187,641.907898 
	C359.750702,639.601257 353.270142,638.111084 346.542389,639.817383 
	C337.881927,642.013733 329.360596,644.915161 319.888580,643.756531 
	C320.980225,646.580261 322.929565,647.902100 324.580048,649.465393 
	C328.932068,653.587646 333.226776,657.774536 337.681519,661.783203 
	C342.848175,666.432434 344.057800,672.447510 344.133514,678.970764 
	C344.174896,682.535767 342.459076,684.080383 338.967468,684.164551 
	C331.049896,684.355469 323.839966,682.222778 317.282623,677.833496 
	C312.380554,674.552185 307.505157,671.230957 302.617859,667.927551 
	C313.511078,676.746521 320.301208,689.312622 330.913788,698.230347 
	C332.116516,699.241028 332.901062,700.816406 332.699646,702.227356 
	C331.882629,707.950562 335.853485,708.037231 339.676208,708.649170 
	C352.530212,710.706787 365.542664,710.761597 379.401031,711.895020 
M154.991455,442.971802 
	C156.623932,432.240631 159.222183,421.795929 163.644089,411.820587 
	C169.503647,398.602081 176.615906,386.055145 187.427261,376.422424 
	C192.005280,372.343475 193.107346,368.180939 191.782654,363.415741 
	C190.267929,357.966980 190.445694,352.961273 192.167648,347.788849 
	C192.986053,345.330536 192.605209,343.291321 189.490250,341.399597 
	C187.109360,349.706665 180.772003,354.109131 174.610901,359.027527 
	C162.908493,368.369598 151.437408,378.122223 143.838699,391.440704 
	C140.092133,398.007446 135.435043,403.698517 129.542938,408.583710 
	C122.126434,414.732727 118.123611,423.267487 115.609573,432.374023 
	C114.508926,436.360901 114.196121,440.917053 116.166931,444.636017 
	C120.684441,453.160645 118.522926,460.309967 112.831841,467.155243 
	C109.428986,471.248230 106.062401,475.350433 103.068459,479.789795 
	C91.936409,496.296112 79.219383,511.239105 62.654232,522.794189 
	C44.318375,535.584351 35.016556,552.958313 38.276775,575.928650 
	C39.962830,587.808105 44.838264,598.364014 51.302746,609.631104 
	C51.585773,607.834106 51.745258,607.241943 51.763454,606.645447 
	C52.536144,581.313049 63.253323,560.483826 80.761948,542.764038 
	C83.343811,540.151062 86.460724,535.635010 90.130325,539.399658 
	C93.614738,542.974304 89.329117,546.413818 86.732323,548.977478 
	C81.617729,554.026855 76.943916,559.415710 72.568893,565.102722 
	C58.369007,583.560791 55.940075,604.131775 63.201271,625.583313 
	C72.265450,652.361328 103.163086,670.355469 133.843277,666.418640 
	C136.344467,666.097717 138.660461,665.225098 140.364822,663.118591 
	C143.493744,659.251221 147.699005,656.901855 152.203354,655.021790 
	C159.339966,652.043152 166.482117,649.077698 174.583496,645.706543 
	C170.901138,645.019470 168.164841,644.575378 165.458679,643.991516 
	C157.270767,642.225098 153.346649,638.039246 152.655319,629.648193 
	C151.948944,621.074402 153.177048,612.737366 156.869385,604.851013 
	C160.403534,597.302612 166.198090,591.911987 173.219574,587.590149 
	C172.292526,587.639954 171.549286,587.932251 170.808609,588.230835 
	C163.705704,591.094849 156.646317,594.075134 149.475204,596.756714 
	C147.230530,597.596130 144.259811,598.418762 143.105682,595.112854 
	C142.104019,592.243652 143.909546,590.392761 146.431824,589.245605 
	C147.794800,588.625671 149.221405,588.142334 150.570068,587.494812 
	C154.816071,585.456055 159.537872,584.426147 163.814041,581.627563 
	C160.906036,579.883606 158.163437,579.423035 155.310394,579.299988 
	C150.985901,579.113403 146.660110,578.922852 142.342560,578.623169 
	C139.949066,578.456970 137.524109,578.145630 137.726120,574.757324 
	C137.938263,571.198853 140.630890,571.630981 142.879181,571.662170 
	C154.419510,571.822144 166.287186,569.918640 176.440536,577.495972 
	C177.169785,576.478210 177.666077,576.104736 177.697464,575.695740 
	C178.903946,559.964783 178.386047,544.627197 167.327591,531.792786 
	C165.454910,529.619324 163.755783,527.218628 163.127518,524.482788 
	C161.942444,519.322266 158.900742,515.550537 155.202881,512.067017 
	C153.021667,510.012207 150.781662,507.859741 149.960587,504.887451 
	C149.446579,503.026672 149.030045,500.704132 151.073715,499.407654 
	C153.236664,498.035553 155.239319,498.969574 156.856018,500.712677 
	C158.443237,502.423981 159.975082,504.186707 162.330505,506.820679 
	C158.707443,485.084534 152.455750,464.976685 154.991455,442.971802 
M230.605499,218.883881 
	C234.853439,228.169678 241.216141,235.676682 249.292465,241.917984 
	C256.361267,247.380737 262.741882,253.530396 270.690338,258.096771 
	C275.649445,260.945709 279.919800,261.934204 285.071747,261.348755 
	C290.919647,260.684143 296.434326,258.866791 301.656891,256.155670 
	C320.659424,246.291092 338.544189,234.934616 353.593781,219.385269 
	C356.716370,216.158966 357.864532,213.236984 357.924072,209.016586 
	C358.264984,184.855453 357.719818,160.774612 353.735779,136.854706 
	C351.478302,123.301025 349.006439,109.814873 339.945374,98.893829 
	C330.287384,87.253395 318.102020,78.769592 303.830048,73.855515 
	C280.678528,65.884056 257.784851,65.192757 236.100235,78.697945 
	C230.828964,81.980904 225.938034,85.911377 224.442398,92.421913 
	C222.245895,101.983490 219.923233,111.567146 220.072586,121.462555 
	C220.386536,142.264191 222.183624,163.004395 222.654617,183.812729 
	C222.921448,195.600845 225.339584,207.269211 230.605499,218.883881 
M244.814804,51.312122 
	C237.133957,57.776974 230.171524,64.787888 225.832092,75.701691 
	C229.271698,73.622940 231.386627,72.331367 233.514282,71.061127 
	C246.481583,63.319447 260.504822,59.551105 275.561768,61.049629 
	C289.520660,62.438881 303.399597,65.130341 316.138763,71.064308 
	C336.467163,80.533386 352.648499,94.194160 357.909546,117.505852 
	C362.393555,137.374191 364.682129,157.492416 365.301361,177.827759 
	C365.883484,196.942902 363.948792,216.150894 367.310791,235.162445 
	C369.170258,245.677475 368.672821,256.012390 365.726593,266.298309 
	C364.762817,269.662964 364.503693,273.435944 365.885681,276.653687 
	C370.751373,287.982574 368.745667,298.752869 364.076904,309.496063 
	C361.808319,314.716217 361.568176,320.152405 363.158783,325.624329 
	C364.798889,331.266632 364.583527,336.778656 362.406708,342.260071 
	C361.675690,344.100861 360.554565,346.315826 361.457764,348.060272 
	C365.256470,355.397034 363.532715,362.578735 361.532471,369.864166 
	C361.093658,371.462280 361.030365,373.328430 362.455872,374.545288 
	C364.298859,376.118622 365.963379,374.565552 367.449707,373.722839 
	C375.706879,369.041229 383.847565,364.153259 392.125916,359.510284 
	C406.372803,351.519745 421.495667,346.107452 437.889130,344.825378 
	C444.933807,344.274475 446.981201,341.746643 443.467468,335.501923 
	C438.361237,326.427094 437.022247,315.888519 431.556458,307.023499 
	C430.170990,304.776459 428.384918,302.257507 428.304504,299.813416 
	C427.932617,288.512024 422.316498,279.161438 417.769928,269.393402 
	C413.335388,259.866211 410.438873,250.136795 412.625702,239.425812 
	C413.217682,236.526169 412.684937,233.471497 412.175812,230.486115 
	C410.837219,222.637161 408.796570,214.956650 408.561829,206.859314 
	C408.089478,190.565796 406.218628,174.356277 404.114990,158.189316 
	C401.978516,141.769882 396.389526,126.187057 392.324463,110.239197 
	C389.902435,100.737251 385.874908,91.720039 382.824982,82.385361 
	C378.849579,70.218094 369.339172,61.566143 360.923981,52.342537 
	C349.176300,39.466354 333.796722,33.848190 317.230713,31.332703 
	C290.533661,27.278851 267.006989,35.795414 244.814804,51.312122 
M356.302032,307.055237 
	C357.664886,302.949310 358.923248,298.804596 360.426697,294.750824 
	C361.459167,291.966949 361.786530,289.275604 360.582825,286.514435 
	C356.302338,276.695435 356.655640,266.590363 359.638672,256.682617 
	C362.683533,246.569382 358.783356,237.190735 358.360657,226.625107 
	C346.995026,237.781342 335.103577,246.594757 322.511566,254.446884 
	C309.623230,262.483795 295.908691,268.221954 280.370758,268.312408 
	C272.908539,268.355835 272.669800,268.607666 273.596008,275.895477 
	C274.476044,282.819763 275.472778,289.729889 276.279327,296.662384 
	C276.558624,299.062866 276.309967,302.172058 272.965302,301.270020 
	C267.428406,299.776703 264.399994,303.346680 260.765472,306.017822 
	C251.647614,312.718811 243.546188,320.828400 233.692291,326.442078 
	C230.451324,328.288422 229.583328,330.169708 230.488693,333.086182 
	C232.496429,339.553741 231.018890,345.673950 227.437637,350.704956 
	C223.644241,356.033966 222.874237,361.471344 223.359802,367.542297 
	C223.583374,370.337646 223.308823,372.804962 219.792053,373.674255 
	C217.415268,374.261810 216.632874,376.377502 216.473785,378.728546 
	C216.059494,384.850891 215.754639,385.121704 209.754105,383.954803 
	C207.745346,383.564240 205.864975,382.843536 204.407104,385.034302 
	C202.933334,387.248993 204.504089,388.849457 205.497742,390.478546 
	C208.932007,396.108978 214.350632,399.433441 219.960190,402.417572 
	C241.506165,413.879333 264.952911,417.354553 288.904053,418.689453 
	C298.856384,419.244080 308.728027,419.689667 315.528564,410.276520 
	C315.895203,409.769043 316.616791,409.523834 317.158600,409.136139 
	C328.808594,400.799408 340.484772,392.498596 352.073914,384.078033 
	C353.780060,382.838318 356.639679,381.810913 355.006317,378.667694 
	C352.488708,373.822784 353.358948,368.956940 354.815002,364.090240 
	C355.686584,361.177185 356.584778,358.170624 355.225861,355.305634 
	C352.507538,349.574799 353.351593,343.984070 355.222809,338.305023 
	C356.048370,335.799438 357.099060,333.333282 356.241089,330.536682 
	C353.932526,323.011810 354.133392,315.434143 356.302032,307.055237 
M274.083038,458.613770 
	C282.418579,448.143280 290.754089,437.672791 299.754547,426.367065 
	C296.816254,426.230530 295.036407,426.163727 293.258545,426.062500 
	C284.625397,425.570953 275.923035,425.857635 267.387421,424.225128 
	C251.560791,421.198181 235.500000,419.100403 220.594452,412.368652 
	C208.655838,406.976807 198.862717,399.472656 194.134964,386.683685 
	C193.748917,385.639404 193.516876,384.387482 192.045410,383.930481 
	C191.712280,384.109833 191.183990,384.240723 190.886841,384.576294 
	C174.867859,402.666595 164.630692,423.649506 162.404480,447.682861 
	C160.426559,469.035706 166.426804,489.533600 172.432983,509.835785 
	C175.180344,519.122559 180.795761,527.227478 183.197281,536.669250 
	C186.092407,548.051453 187.011429,559.618164 187.121902,571.299377 
	C187.137222,572.917664 186.701355,574.727722 188.068024,576.043823 
	C190.955170,578.824280 200.608536,577.826477 203.074417,574.573853 
	C205.384781,571.526245 207.422012,568.186523 210.132782,565.542786 
	C219.847519,556.068420 226.856796,545.116516 231.208237,532.154785 
	C234.268738,523.038391 238.553802,514.308777 242.623718,505.560760 
	C250.556656,488.509399 262.027252,473.781555 274.083038,458.613770 
M283.184143,704.280884 
	C288.176361,706.377563 292.945190,709.155701 299.622467,709.737122 
	C297.960175,707.805542 296.969879,706.563171 295.885437,705.409363 
	C287.419525,696.401672 277.475952,689.040588 268.346436,680.770264 
	C263.657562,676.522705 258.680786,672.594299 253.890732,668.456238 
	C251.884918,666.723389 251.389297,664.328674 252.611801,662.107483 
	C253.951096,659.674133 256.194244,661.148376 257.961029,661.733215 
	C259.512482,662.246826 261.068420,663.038513 262.341125,664.058350 
	C277.953644,676.568298 295.518158,686.380737 310.880493,699.237305 
	C314.004761,701.851929 317.682770,703.239136 323.149353,703.163757 
	C313.063324,692.925476 305.221649,682.020325 295.154785,673.059204 
	C287.442963,666.194397 279.980133,659.050232 272.385834,652.052734 
	C270.482727,650.299255 269.538544,648.015320 270.541351,645.770447 
	C271.770905,643.017944 274.504395,643.777100 276.708099,644.463196 
	C279.235748,645.250183 281.714325,646.277161 284.093018,647.446472 
	C297.139954,653.860535 309.380341,661.586487 321.029785,670.275391 
	C325.192413,673.380249 329.789001,675.510132 335.263672,676.097107 
	C335.025726,672.990967 333.263824,671.147827 331.781189,669.215088 
	C327.208984,663.254883 321.431946,658.447937 316.193542,653.124390 
	C307.259888,644.045654 295.549744,639.180115 284.977783,632.592957 
	C279.015747,628.878174 278.509857,626.805420 282.943207,621.283203 
	C275.650330,618.681702 270.108307,613.603882 264.273041,608.918030 
	C262.215210,607.265503 259.888062,605.813904 257.469116,604.766785 
	C236.453644,595.669373 214.646042,589.481445 191.580307,591.492676 
	C172.516190,593.155090 162.918533,602.605957 161.286453,620.047180 
	C159.977524,634.034912 160.695053,634.770935 174.555038,637.362244 
	C179.504120,638.287598 184.258041,639.731567 188.638077,642.275574 
	C191.111771,643.712463 193.355698,645.375061 194.940735,647.840820 
	C207.540085,667.441162 226.805161,680.314880 243.604797,695.638733 
	C248.605850,700.200439 255.559784,701.719421 262.457214,702.222961 
	C254.965210,697.291748 248.369354,691.363892 240.997375,686.531067 
	C238.536194,684.917542 238.211349,682.748169 239.182281,680.481628 
	C240.216507,678.067383 242.475540,678.802856 244.421326,679.309265 
	C246.918365,679.959045 248.823257,681.644348 250.801056,683.152954 
	C260.877777,690.839050 271.038696,698.390442 283.184143,704.280884 
M210.692719,106.478493 
	C206.444839,113.297981 205.214691,120.541908 206.817581,128.496490 
	C207.959839,134.165100 206.969162,139.906113 204.463348,145.083359 
	C200.407516,153.463028 196.960358,162.188232 191.417160,169.786987 
	C189.032776,173.055573 188.180481,176.637436 188.936661,180.629776 
	C190.716766,190.028336 190.846359,199.523071 189.911179,208.984619 
	C188.681396,221.426956 187.747223,233.859299 188.347534,246.368591 
	C188.673737,253.165848 190.117920,259.464539 195.011688,264.693207 
	C198.296829,268.203125 199.938232,272.790497 200.018555,277.502380 
	C200.302383,294.154053 199.799591,310.775848 195.221008,326.959808 
	C194.446579,329.697113 193.998001,332.287140 196.104477,334.454285 
	C200.252838,338.722137 200.562042,343.893646 200.107147,349.359039 
	C199.993317,350.726532 198.958694,352.275696 200.448624,353.457886 
	C201.972321,354.002319 202.575958,352.865204 203.477371,352.157196 
	C206.681839,349.640106 209.393631,350.260010 210.810104,354.013672 
	C212.110184,357.458801 214.537048,360.433807 214.996307,364.351562 
	C213.502945,357.877106 215.127777,352.621490 219.617966,347.781616 
	C223.282257,343.831940 224.847198,338.956390 222.580292,333.464111 
	C221.595963,331.079285 221.529175,328.394440 222.654709,326.131378 
	C225.567261,320.275391 225.785645,314.654907 222.954086,308.630035 
	C221.970444,306.537048 222.359741,303.703003 222.471237,301.223083 
	C222.552795,299.408844 222.076202,296.911591 225.190567,296.822906 
	C227.951828,296.744324 229.010925,298.316223 229.228638,300.835480 
	C229.679428,306.051941 232.047302,310.601349 233.962204,315.232513 
	C236.330826,315.123047 237.569061,313.671173 238.982330,312.565063 
	C245.015259,307.843292 250.980835,303.033752 257.074158,298.391663 
	C259.576355,296.485413 262.666656,295.266022 264.915222,293.129791 
	C269.547791,288.728699 267.823090,266.405121 262.389954,262.837921 
	C255.371231,258.229645 249.662369,252.066391 242.964844,247.199554 
	C226.462311,235.207809 218.925858,218.315384 216.955872,199.013794 
	C214.084167,170.877228 213.149002,142.581879 212.772507,114.286629 
	C212.725647,110.764565 214.464935,107.302963 213.237946,103.222984 
	C212.299271,104.410187 211.691620,105.178734 210.692719,106.478493 
M172.259750,654.719421 
	C165.204285,657.710938 158.324417,661.054565 151.708466,664.931824 
	C146.521515,667.971680 143.266769,672.425110 142.245148,678.338928 
	C141.198120,684.399780 140.114822,690.475769 139.547440,696.591492 
	C139.069061,701.748108 141.278564,706.052185 145.751648,710.218994 
	C145.586349,701.333496 145.574554,693.392517 149.231155,685.942993 
	C153.540558,677.163330 160.604843,670.881714 167.711670,664.578064 
	C169.921310,662.618103 172.601562,660.442444 175.117401,662.885559 
	C177.843475,665.532837 175.662811,668.580322 173.599991,670.748291 
	C170.509232,673.996643 166.981735,676.824280 163.786072,679.978821 
	C151.371689,692.233582 149.572998,706.529236 158.557693,722.427795 
	C158.370712,719.191956 157.805847,716.210449 158.099533,713.316162 
	C159.335419,701.136536 167.463837,692.648193 174.546356,683.663025 
	C175.782608,682.094604 177.957428,682.234436 179.613159,683.261536 
	C181.230103,684.264587 181.270813,686.031677 180.832153,687.745239 
	C180.197922,690.222778 178.718323,692.235291 177.222778,694.249207 
	C174.941238,697.321533 172.539902,700.326355 170.517624,703.564758 
	C167.605042,708.228821 166.757797,713.447144 167.178406,718.994934 
	C171.353317,713.091309 174.993927,707.003296 178.338242,700.756714 
	C179.882034,697.873108 181.736130,695.004700 185.096497,696.497192 
	C189.084702,698.268616 186.745941,701.801758 185.535675,704.244690 
	C182.510269,710.351501 179.135605,716.291443 175.751175,722.212585 
	C172.651413,727.635681 170.280685,733.237854 170.268921,739.612610 
	C170.262589,743.042175 171.708466,745.418823 175.705002,747.087524 
	C175.167694,738.164001 177.364960,730.826721 182.779755,724.304749 
	C191.407806,713.912537 203.116516,709.697083 215.614380,706.811401 
	C222.359955,705.253784 229.138519,703.839050 236.364410,702.258789 
	C235.647614,701.090759 235.419754,700.467529 234.989487,700.055908 
	C228.015137,693.382141 221.024246,686.734131 213.609726,680.531921 
	C205.300430,673.581299 197.126648,666.383667 191.072968,657.311707 
	C187.839279,652.465759 183.978836,651.212708 178.734756,652.748535 
	C176.819061,653.309570 174.903732,653.871948 172.259750,654.719421 
M306.161194,631.779724 
	C307.194977,631.114075 308.765472,631.042175 308.936890,628.829407 
	C302.786499,624.870789 295.487518,624.930237 288.090454,623.460938 
	C295.003571,629.746399 300.480621,632.381897 306.161194,631.779724 
z"/>
<path fill="#000000" opacity="1.000000" stroke="none" 
	d="
M384.079712,407.020142 
	C405.657776,396.654419 427.926544,391.184967 451.584503,392.745728 
	C467.068665,393.767242 482.380737,395.921417 496.775299,402.289307 
	C500.609100,403.985321 504.239380,406.001953 507.373749,408.788269 
	C509.499268,410.677765 509.925568,413.246490 508.583923,415.604248 
	C507.137268,418.146637 504.485046,417.625397 502.339325,416.677490 
	C499.612885,415.473114 497.157318,413.670013 494.473022,412.353241 
	C471.502472,401.085297 447.219025,397.491058 422.601501,404.058563 
	C378.700806,415.770508 338.738647,435.102264 307.435608,469.375641 
	C302.161621,475.150055 296.689270,480.743256 291.309784,486.421356 
	C289.917786,487.890656 288.485809,489.312042 286.259888,489.271332 
	C284.481812,489.238800 282.410156,489.797241 281.378265,487.712433 
	C280.336945,485.608582 280.382355,483.379242 282.157806,481.705505 
	C299.201996,465.638275 313.751892,446.917328 333.480621,433.701202 
	C349.311676,423.096100 365.968781,414.100189 384.079712,407.020142 
z"/>
</svg>